# xmcd CD database file
#
# Track frame offsets:
#	150
#	24474
#	46213
#	59637
#	80282
#	99871
#	125436
#	149728
#	169561
#	191982
#	212272
#	230038
#
# Disc length: 3344 seconds
#
# Revision: 3
# Processed by: cddbd v1.5.2PL0 Copyright (c) Steve Scherf et al.
# Submitted via: CDex 1.70beta2
#
DISCID=a40d0e0c
DTITLE=Various Artist - The blues for you
DYEAR=2000
DGENRE=Blues
TTITLE0=Muddy Waters - Mannish boy
TTITLE1=The Electric Flag - Texas
TTITLE2=Fleetwood Mac - My heart beat like a hammer
TTITLE3=Omar and the Howlers - Down in Mississippi
TTITLE4=Johnny Winter - Everybody's blues
TTITLE5=The Gary Moore Band - Boggie my way back home
TTITLE6=Stevie Ray Vaughan Band - Texas Flood
TTITLE7=Mike Bloomfield, Al Kooper, Stephen Stills - Stop
TTITLE8=Jeff Beck Group - Tonight I'll be staying here with you
TTITLE9=Taj Mahal - Dust my broom
TTITLE10=The Fabulous Thunderbirds - How do you spell love
TTITLE11=The Allman Brothers Band - Let me ride
EXTD=YEAR: 2000
EXTT0=
EXTT1=
EXTT2=
EXTT3=
EXTT4=
EXTT5=
EXTT6=
EXTT7=
EXTT8=
EXTT9=
EXTT10=
EXTT11=
PLAYORDER=
